<svg xmlns="http://www.w3.org/2000/svg" width="131.007" height="37.29" viewBox="0 0 131.007 37.29">
  <g id="_2-_شعار_كامل" data-name="2- شعار كامل" transform="translate(-5.36 -52.22)">
    <g id="Group_2" data-name="Group 2">
      <path id="Path_3" data-name="Path 3" d="M87.68,65.16a1.464,1.464,0,0,1-2.07-2.07,37.08,37.08,0,0,1,48.27-3.61,6.119,6.119,0,0,1-7.22,9.88l-.03-.02a24.935,24.935,0,0,0-21.76-3.88,25.2,25.2,0,0,0-6.41,2.91h-.01a3.211,3.211,0,0,0-.97,4.41,3.211,3.211,0,0,0,4.41.97,1.463,1.463,0,1,1,1.57,2.47,6.07,6.07,0,0,1-4.6.82h-.01a6.131,6.131,0,0,1-4.66-7.29v-.01a6.064,6.064,0,0,1,2.69-3.84l.01-.01a28.025,28.025,0,0,1,7.16-3.25,27.789,27.789,0,0,1,24.29,4.31l.01.01a3.19,3.19,0,0,0,3.78-5.14,34.2,34.2,0,0,0-33.37-4.07,34.438,34.438,0,0,0-11.08,7.41Zm28.94,6.32a19.872,19.872,0,0,0-2.37-.47,18.52,18.52,0,0,0-7.19.47,1.464,1.464,0,1,0,.75,2.83,16.306,16.306,0,0,1,1.99-.4,15.915,15.915,0,0,1,4.06,0,15.934,15.934,0,0,1,1.99.4,1.46,1.46,0,0,0,1.79-1.04,1.433,1.433,0,0,0-1.02-1.79Zm8.28,4.78a18.771,18.771,0,0,0-1.49-1.34,18.314,18.314,0,0,0-1.63-1.17,1.463,1.463,0,0,0-1.57,2.47,15.081,15.081,0,0,1,1.37.98,14.878,14.878,0,0,1,1.25,1.12,1.46,1.46,0,1,0,2.07-2.06Z" fill="#fff" fill-rule="evenodd"/>
      <path id="Path_4" data-name="Path 4" d="M108.62,88.18l-3.26-3.26a1.467,1.467,0,0,1,0-2.07,9.2,9.2,0,0,1,6.48-2.69,9.109,9.109,0,0,1,3.5.7,9.219,9.219,0,0,1,2.98,1.99,1.467,1.467,0,0,1,0,2.07l-3.26,3.26a4.563,4.563,0,0,1-6.44,0Z" fill="#fff" fill-rule="evenodd"/>
    </g>
    <path id="Path_5" data-name="Path 5" d="M49.91,63.68l3.93-1.05h0a5.862,5.862,0,0,1,1.29-.14c3.28.06,4.57,2.56,4.53,5,0,2.33-1.25,4.87-4.52,4.9H51.03a3.958,3.958,0,0,1-4.2-4.28,4.289,4.289,0,0,1,3.08-4.43Zm9.71,12.89a.63.63,0,1,0,.63.63.627.627,0,0,0-.63-.63Zm10.2,0H67.57v1.27h.85v1.89H64.65V77.84h0V76.57H62.38v1.27h.91v5.31h-.9v1.27h2.26V83.15h0V80.97h3.77v3.45H69.8c0-2.63.02-5.25.02-7.85Zm-9.53,6.57V78.33H58V79.6h.91v3.54h-.94v1.27h3.26V83.14Zm-6.72,1.47c1.58,0,3.42-.52,3.43-2.47,0-1.79-1.62-2.17-3.3-2.4-1.03-.15-1.61-.34-1.61-1.03,0-.71.9-1.1,1.74-1.11a3.155,3.155,0,0,1,1.39.29l.08,1.03h1.22c0-.63.01-1,.01-1.62a3.773,3.773,0,0,0-2.76-.91c-1.31,0-3.07.77-3.07,2.33,0,1.75,1.25,2.13,2.81,2.28.92.09,2.05.27,2.08,1.13,0,.95-1.02,1.2-1.99,1.2a3.594,3.594,0,0,1-1.58-.41l-.09-1.06H50.66c.01.27,0,2,0,1.7a3.834,3.834,0,0,0,2.91,1.05Zm-7.93-6.67c.62,1.43.93,2.27,1.25,3.06H45.61v1.23h1.82c.32.71.6,1.46.9,2.18h1.51l-3.43-7.84H44.89c-1.22,2.61-2.43,5.23-3.65,7.84h1.49c.98-2.17,1.93-4.3,2.91-6.47Zm-6.37,1.79v1.29H37.48v2.13h0v1.27H36.1V76.58h5.26V79H40.14l-.06-1.2h-2.6v1.94h1.79ZM31.26,77.4a1.54,1.54,0,1,1-1.54,1.54,1.541,1.541,0,0,1,1.54-1.54Zm0,3.92a1.54,1.54,0,1,1-1.54,1.54,1.541,1.541,0,0,1,1.54-1.54ZM71.23,55.18a1.54,1.54,0,1,1-1.54,1.54,1.541,1.541,0,0,1,1.54-1.54ZM26.41,72.44c-2.3,0-3.63-1.39-3.63-3.97v-.85a6.949,6.949,0,0,0-7.37-7.31,7.43,7.43,0,0,0-4.49,1.33c0,1.01.02,2.28.04,3.28h2.18L13.26,63a6.055,6.055,0,0,1,2.14-.36,4.523,4.523,0,0,1,4.92,4.92c-.08,2.34-1.19,4.73-4.71,4.82H11.58c-4.43,0-6.22,2.74-6.22,5.96,0,3.2,1.85,6.06,6.22,6.06H26.4V80.23H24.16V82H11.61c-2.5,0-3.95-1.49-3.95-3.65,0-2.3,1.35-3.63,3.93-3.63h4.03a7,7,0,0,0,5.68-2.5,5.736,5.736,0,0,0,5.11,2.51,5.926,5.926,0,0,0,4.84-2.13,5.865,5.865,0,0,0,4.85,2.13,5.958,5.958,0,0,0,4.86-2.1,5.945,5.945,0,0,0,4.86,2.1H71.26c4.87,0,7.07-3.61,7.09-7.23.04-3.73-2.26-7.25-6.99-7.29a6.95,6.95,0,0,0-7.23,7.33,7.519,7.519,0,0,0,1.66,4.86H60.45a7.753,7.753,0,0,0,1.67-4.9c.04-3.73-2.26-7.25-6.99-7.29a8.206,8.206,0,0,0-1.88.21h0l-3.8,1.02A6.91,6.91,0,0,0,45.82,72.4h0c-2.3,0-3.63-1.35-3.63-3.93V66.7l-2.44.65v1.12c0,2.58-1.33,3.93-3.63,3.93s-3.63-1.35-3.63-3.93V64.93h0V62.69H28.32v2.24h1.77v3.56c-.03,2.5-1.52,3.95-3.68,3.95Zm-3.64-4.83v.03h0v-.03Zm26.67-6.17ZM71.25,72.4h-.03c-3.27-.03-4.66-2.38-4.66-4.88.02-2.9,1.73-5.02,4.79-5.02,3.28.06,4.57,2.56,4.53,5,0,2.34-1.27,4.91-4.59,4.91l-.04-.01ZM32.46,68.5v0Z" fill="#fff" fill-rule="evenodd"/>
  </g>
</svg>
